<svg id="Layer_1" data-name="Layer 1" xmlns="http://www.w3.org/2000/svg" viewBox="0 0 276.42 38.36"><title>hullingerdesign-tschichold-half-01</title>
<path d="M31.5,37.78h-7v-16H7.06v16H0V.74H7.06V15.19H24.45V.74H31.5Z"/>
<path d="M68.41,24A14.79,14.79,0,0,1,68,27.36a14.25,14.25,0,0,1-1.15,3.19A13.71,13.71,0,0,1,65,33.34a12,12,0,0,1-2.55,2.23,16.12,16.12,0,0,1-5.12,2.16,25,25,0,0,1-5.56.63,18.2,18.2,0,0,1-5.85-.93,14,14,0,0,1-4.83-2.72,12.91,12.91,0,0,1-3.26-4.36,13.65,13.65,0,0,1-1.2-5.85V.74h7.06V23.18a8.69,8.69,0,0,0,.71,3.57,8.23,8.23,0,0,0,1.93,2.75,8.63,8.63,0,0,0,2.92,1.74,10.67,10.67,0,0,0,3.6.61,8.91,8.91,0,0,0,3.45-.66,8.41,8.41,0,0,0,4.61-4.61,8.8,8.8,0,0,0,.66-3.4V.74h6.86Z"/>
<path d="M93.31,37.78H73.52V.74h7V31.5H93.31Z"/>
<path d="M117.52,37.78H97.72V.74h7.06V31.5h12.74Z"/>
<path d="M129,37.78h-7V.74h7Z"/>
<path d="M168.29,37.78h-6.52l-20.38-25v25h-7.06V.74h6.57l20.33,24.49V.74h7.06Z"/>
<path d="M205.38,35.47a29.26,29.26,0,0,1-5.76,2,26,26,0,0,1-6.05.71,26.72,26.72,0,0,1-8-1.18,19.63,19.63,0,0,1-6.66-3.5,16.68,16.68,0,0,1-4.53-5.76,18,18,0,0,1-1.67-8,19.06,19.06,0,0,1,1.62-7.88,19.66,19.66,0,0,1,4.38-6.28,20.35,20.35,0,0,1,6.49-4.14A21.16,21.16,0,0,1,193.08,0a20.79,20.79,0,0,1,3.14.25,26.07,26.07,0,0,1,6.47,1.83,13.16,13.16,0,0,1,2.69,1.55v6.66a39.16,39.16,0,0,0-5.85-2.77,17.77,17.77,0,0,0-6.3-1.15,13.2,13.2,0,0,0-5.07,1,12.37,12.37,0,0,0-6.86,6.76,12.86,12.86,0,0,0-1,5.1,13.57,13.57,0,0,0,.42,3.33,13.24,13.24,0,0,0,3.21,5.85,10.9,10.9,0,0,0,6.61,3.36,35.7,35.7,0,0,0,4.12.24,11.56,11.56,0,0,0,3.67-.58V19h7.06Z"/>
<path d="M232.75,37.78H211V.74h21.26V7H218.05v8.82h13.72V22.1H218.05v9.4h14.7Z"/>
<path d="M266.81,37.78H257.9L247.56,23.62a4.71,4.71,0,0,0-.74-.91,2.51,2.51,0,0,0-.71-.49,2.55,2.55,0,0,0-.8-.22c-.3,0-.67-.05-1.13-.05V37.78h-7.06V.74h12.45a17.16,17.16,0,0,1,4.51.58,11.79,11.79,0,0,1,3.82,1.79,8.89,8.89,0,0,1,2.67,3.09,9.4,9.4,0,0,1,1,4.48,9.5,9.5,0,0,1-.66,3.53,12,12,0,0,1-1.76,3,12.41,12.41,0,0,1-2.6,2.4,13.41,13.41,0,0,1-3.21,1.61,5.68,5.68,0,0,1,2.25,1.67Zm-13-26.41a4.52,4.52,0,0,0-1.42-3.51,5.2,5.2,0,0,0-3.63-1.29h-4.6v9.7h4.11a6.25,6.25,0,0,0,2-.35,5.28,5.28,0,0,0,3-2.52A4.15,4.15,0,0,0,253.83,11.37Z"/>
<path d="M276.42,34.35a3.93,3.93,0,0,1-4,4,4,4,0,0,1-2.87-1.15,4,4,0,0,1,0-5.73,4,4,0,0,1,2.87-1.15,3.93,3.93,0,0,1,4,4Z"/>
</svg>